<svg class="ui-homes-icon ui-homes-icon--da-categories font-color--HOME-DA-CATEGORIES" width="100%" height="100%" viewBox="0 0 100 100" fill="none" xmlns="http://www.w3.org/2000/svg"><circle cx="53" cy="53" r="45.5403" fill="#EEEEEE"></circle><path d="M47.75 11.7485H14.3735C12.9238 11.7485 11.7485 12.9238 11.7485 14.3735V19.5312V24.7812V47.75C11.7485 49.1998 12.9238 50.375 14.3735 50.375H47.75C49.1998 50.375 50.375 49.1998 50.375 47.75V14.3735C50.375 12.9238 49.1998 11.7485 47.75 11.7485Z" fill="white"></path><path d="M11.7485 24.7812V47.75C11.7485 49.1998 12.9238 50.375 14.3735 50.375H47.75C49.1998 50.375 50.375 49.1998 50.375 47.75V14.3735C50.375 12.9238 49.1998 11.7485 47.75 11.7485H14.3735C12.9238 11.7485 11.7485 12.9238 11.7485 14.3735V19.5312" stroke="black" stroke-width="1.96875"></path><rect x="55.625" y="11.7485" width="38.6265" height="38.6265" rx="2.625" fill="white" stroke="black" stroke-width="1.96875"></rect><rect x="11.7485" y="55.625" width="38.6265" height="38.6265" rx="2.625" fill="white" stroke="black" stroke-width="1.96875"></rect><rect x="58.25" y="58.25" width="34.689" height="34.689" rx="17.3445" fill="#FFE600" stroke="white" stroke-width="3.9375"></rect><path d="M93.568 68.512C92.6871 66.2746 91.3709 64.1653 89.6157 62.3125C82.2802 54.5688 70.0561 54.238 62.3124 61.5736C54.5688 68.9092 54.2379 81.1333 61.5735 88.8769C68.9091 96.6206 81.1332 96.9514 88.8768 89.6158C90.8338 87.762 92.3173 85.596 93.3233 83.269M94.7233 78.2651C94.9352 76.7401 94.9651 75.1938 94.812 73.6613" stroke="black" stroke-width="1.96875"></path></svg>