<svg class="ui-homes-icon ui-homes-icon--da-registration font-color--HOME-DA-REGISTRATION" width="100%" height="100%" viewBox="0 0 100 100" fill="none" xmlns="http://www.w3.org/2000/svg"><circle cx="53" cy="53" r="45.5403" fill="#EEEEEE"></circle><path d="M6.11798 26.8026H98.5728V85.6906C98.5728 86.4814 97.9653 87.0218 97.3382 87.0218H7.35262C6.72548 87.0218 6.11798 86.4814 6.11798 85.6906V26.8026Z" fill="#FFE600" stroke="white" stroke-width="3.9375"></path><path d="M4.14923 49.0625V85.6906C4.14923 87.5131 5.58344 88.9906 7.35262 88.9906H97.3382C99.1073 88.9906 100.542 87.5131 100.542 85.6906V83.8438M4.14923 44.0176V24.8338H100.542V69.3037M100.542 74.6562V78.5938" stroke="#333333" stroke-width="1.96875"></path><path fill-rule="evenodd" clip-rule="evenodd" d="M7.35311 15.5938H97.356C99.1251 15.5937 100.559 17.1101 100.559 18.9807V24.6013H4.14972V18.9807C4.14972 17.1101 5.58393 15.5938 7.35311 15.5938Z" fill="white" stroke="#333333" stroke-width="1.96875"></path><ellipse cx="11.052" cy="20.0975" rx="1.52462" ry="1.52453" fill="#333333"></ellipse><ellipse cx="17.8907" cy="20.0975" rx="1.52462" ry="1.52453" fill="#333333"></ellipse><ellipse cx="24.9816" cy="20.0975" rx="1.52462" ry="1.52453" fill="#333333"></ellipse><path d="M69.1355 56.9122C69.1355 66.3571 61.5924 73.9666 52.3452 73.9666C43.098 73.9666 35.5548 66.3571 35.5548 56.9122C35.5548 47.4672 43.098 39.8577 52.3452 39.8577C61.5924 39.8577 69.1355 47.4672 69.1355 56.9122Z" fill="white" stroke="white" stroke-width="3.9375"></path><ellipse cx="52.3452" cy="56.9122" rx="18.7591" ry="19.0232" stroke="#333333" stroke-width="1.96875"></ellipse><path d="M44.1489 66.4681V65.5572C44.1489 63.0773 46.1592 61.067 48.6392 61.067H56.0276C58.5205 61.067 60.5414 63.0878 60.5414 65.5807V66.4916" stroke="#333333" stroke-width="1.96875"></path><path fill-rule="evenodd" clip-rule="evenodd" d="M52.352 47.3328C55.4005 47.3328 57.8718 49.8041 57.8718 52.8527C57.8718 55.9012 55.4005 58.3725 52.352 58.3725C49.3035 58.3725 46.8322 55.9012 46.8322 52.8527C46.8322 49.8041 49.3035 47.3328 52.352 47.3328Z" stroke="#333333" stroke-width="1.96875"></path></svg>