<svg class="ui-homes-icon ui-homes-icon--da-official-stores font-color--HOME-DA-NEW-OFFICIAL-STORES" width="100%" height="100%" viewBox="0 0 100 100" fill="none" xmlns="http://www.w3.org/2000/svg"><circle cx="53" cy="53" r="45.5403" fill="#EEEEEE"></circle><rect x="18.6375" y="41.0118" width="76.9441" height="45.2613" fill="white"></rect><path d="M18.6373 46.2617V51.7181M95.5814 46.2617V68.7806M18.6373 56.9681V86.273H95.5814V83.2181M95.5814 74.0306V77.9681" stroke="#333333" stroke-width="1.96875"></path><rect x="32.3193" y="56.2969" width="26.034" height="18.4106" rx="1.3125" fill="white" stroke="#333333" stroke-width="1.96875"></rect><path d="M50.7499 67.964L55.2361 63.946" stroke="#333333" stroke-width="1.96875"></path><path d="M35.7448 66.7875L40.231 62.7695" stroke="#333333" stroke-width="1.96875"></path><path fill-rule="evenodd" clip-rule="evenodd" d="M45.3363 74.7075V56.2969Z" fill="white"></path><path d="M45.3363 74.7075V56.2969" stroke="#333333" stroke-width="1.96875"></path><mask id="path-9-inside-1_562_4364" fill="white"><path fill-rule="evenodd" clip-rule="evenodd" d="M20.9083 46.6405C25.7944 46.6405 29.7553 43.5671 29.7553 39.7758L29.9056 30.993H12.2115L12.0612 39.7758C12.0612 43.5671 16.0222 46.6405 20.9083 46.6405ZM68.4965 54.7317C68.4965 54.0069 69.0842 53.4192 69.809 53.4192H88.879C89.6039 53.4192 90.1915 54.0069 90.1915 54.7317V86.273H68.4965V54.7317ZM22.5782 63.6424L25.6532 81.1356H12.9665L9.81782 63.6424H22.5782ZM65.4441 39.7758C65.4441 43.5671 61.4832 46.6405 56.5971 46.6405C51.711 46.6405 47.75 43.5671 47.75 39.7758L47.9003 30.993H65.5944L65.4441 39.7758ZM92.2859 46.6405C97.172 46.6405 101.133 43.5671 101.133 39.7758L101.283 30.993H83.5891L83.4388 39.7758C83.4388 43.5671 87.3998 46.6405 92.2859 46.6405Z"></path></mask><path fill-rule="evenodd" clip-rule="evenodd" d="M20.9083 46.6405C25.7944 46.6405 29.7553 43.5671 29.7553 39.7758L29.9056 30.993H12.2115L12.0612 39.7758C12.0612 43.5671 16.0222 46.6405 20.9083 46.6405ZM68.4965 54.7317C68.4965 54.0069 69.0842 53.4192 69.809 53.4192H88.879C89.6039 53.4192 90.1915 54.0069 90.1915 54.7317V86.273H68.4965V54.7317ZM22.5782 63.6424L25.6532 81.1356H12.9665L9.81782 63.6424H22.5782ZM65.4441 39.7758C65.4441 43.5671 61.4832 46.6405 56.5971 46.6405C51.711 46.6405 47.75 43.5671 47.75 39.7758L47.9003 30.993H65.5944L65.4441 39.7758ZM92.2859 46.6405C97.172 46.6405 101.133 43.5671 101.133 39.7758L101.283 30.993H83.5891L83.4388 39.7758C83.4388 43.5671 87.3998 46.6405 92.2859 46.6405Z" fill="#FFE600"></path><path d="M29.7553 39.7758L25.8184 39.7084L25.8178 39.7421V39.7758H29.7553ZM29.9056 30.993L33.8426 31.0604L33.9111 27.0555H29.9056V30.993ZM12.2115 30.993V27.0555H8.34085L8.27462 30.9256L12.2115 30.993ZM12.0612 39.7758L8.12431 39.7084L8.12373 39.7421V39.7758H12.0612ZM90.1915 86.273V90.2105H94.129V86.273H90.1915ZM68.4965 86.273H64.559V90.2105H68.4965V86.273ZM25.6532 81.1356V85.0731H30.3432L29.5312 80.4539L25.6532 81.1356ZM22.5782 63.6424L26.4562 62.9607L25.8839 59.7049H22.5782V63.6424ZM12.9665 81.1356L9.09123 81.8331L9.6744 85.0731H12.9665V81.1356ZM9.81782 63.6424V59.7049H5.10833L5.94259 64.3399L9.81782 63.6424ZM65.4441 39.7758L61.5072 39.7084L61.5066 39.7421V39.7758H65.4441ZM47.75 39.7758L43.8131 39.7084L43.8125 39.7421V39.7758H47.75ZM47.9003 30.993V27.0555H44.0296L43.9634 30.9256L47.9003 30.993ZM65.5944 30.993L69.5313 31.0604L69.5999 27.0555H65.5944V30.993ZM101.133 39.7758L97.196 39.7084L97.1954 39.7421V39.7758H101.133ZM101.283 30.993L105.22 31.0604L105.289 27.0555H101.283V30.993ZM83.5891 30.993V27.0555H79.7184L79.6522 30.9256L83.5891 30.993ZM83.4388 39.7758L79.5019 39.7084L79.5013 39.7421V39.7758H83.4388ZM25.8178 39.7758C25.8178 40.5214 24.6076 42.703 20.9083 42.703V50.578C26.9812 50.578 33.6928 46.6127 33.6928 39.7758H25.8178ZM25.9687 30.9256L25.8184 39.7084L33.6923 39.8432L33.8426 31.0604L25.9687 30.9256ZM12.2115 34.9305H29.9056V27.0555H12.2115V34.9305ZM15.9982 39.8432L16.1485 31.0604L8.27462 30.9256L8.12431 39.7084L15.9982 39.8432ZM20.9083 42.703C17.209 42.703 15.9987 40.5214 15.9987 39.7758H8.12373C8.12373 46.6127 14.8354 50.578 20.9083 50.578V42.703ZM69.809 49.4817C66.9095 49.4817 64.559 51.8322 64.559 54.7317H72.434C72.434 56.1815 71.2588 57.3567 69.809 57.3567V49.4817ZM88.879 49.4817H69.809V57.3567H88.879V49.4817ZM94.129 54.7317C94.129 51.8322 91.7785 49.4817 88.879 49.4817V57.3567C87.4293 57.3567 86.254 56.1815 86.254 54.7317H94.129ZM94.129 86.273V54.7317H86.254V86.273H94.129ZM68.4965 90.2105H90.1915V82.3355H68.4965V90.2105ZM64.559 54.7317V86.273H72.434V54.7317H64.559ZM29.5312 80.4539L26.4562 62.9607L18.7002 64.3241L21.7752 81.8173L29.5312 80.4539ZM12.9665 85.0731H25.6532V77.1981H12.9665V85.0731ZM5.94259 64.3399L9.09123 81.8331L16.8417 80.4381L13.693 62.9449L5.94259 64.3399ZM22.5782 59.7049H9.81782V67.5799H22.5782V59.7049ZM56.5971 50.578C62.67 50.578 69.3816 46.6127 69.3816 39.7758H61.5066C61.5066 40.5214 60.2964 42.703 56.5971 42.703V50.578ZM43.8125 39.7758C43.8125 46.6127 50.5242 50.578 56.5971 50.578V42.703C52.8978 42.703 51.6875 40.5214 51.6875 39.7758H43.8125ZM43.9634 30.9256L43.8131 39.7084L51.6869 39.8432L51.8372 31.0604L43.9634 30.9256ZM65.5944 27.0555H47.9003V34.9305H65.5944V27.0555ZM69.381 39.8432L69.5313 31.0604L61.6575 30.9256L61.5072 39.7084L69.381 39.8432ZM97.1954 39.7758C97.1954 40.5214 95.9851 42.703 92.2859 42.703V50.578C98.3588 50.578 105.07 46.6127 105.07 39.7758H97.1954ZM97.3463 30.9256L97.196 39.7084L105.07 39.8432L105.22 31.0604L97.3463 30.9256ZM83.5891 34.9305H101.283V27.0555H83.5891V34.9305ZM87.3757 39.8432L87.5261 31.0604L79.6522 30.9256L79.5019 39.7084L87.3757 39.8432ZM92.2859 42.703C88.5866 42.703 87.3763 40.5214 87.3763 39.7758H79.5013C79.5013 46.6127 86.213 50.578 92.2859 50.578V42.703Z" fill="white" mask="url(#path-9-inside-1_562_4364)"></path><path d="M68.4965 56.0442C68.4965 54.5945 69.6718 53.4193 71.1215 53.4193H87.5665C89.0163 53.4193 90.1915 54.5945 90.1915 56.0443V86.2731H68.4965V56.0442Z" stroke="#333333" stroke-width="1.96875"></path><ellipse cx="79.344" cy="62.5644" rx="3.18815" ry="3.18814" fill="white" stroke="#333333" stroke-width="1.96875"></ellipse><path d="M5.31055 86.1902L9.20431 63.6424H21.9647" stroke="#333333" stroke-width="1.96875"></path><path d="M26.472 86.1902L22.5782 63.6424H9.81782L13.7116 86.1902" stroke="#333333" stroke-width="1.96875"></path><path fill-rule="evenodd" clip-rule="evenodd" d="M25.6532 81.1356L22.5782 63.6424H9.81782L12.8928 81.1356H25.6532Z" stroke="#333333" stroke-width="1.96875"></path><path fill-rule="evenodd" clip-rule="evenodd" d="M47.5997 39.7758C47.5997 43.5671 43.6388 46.6405 38.7527 46.6405C33.8666 46.6405 29.9056 43.5671 29.9056 39.7758C29.9056 39.7758 30.0559 30.993 30.0559 30.993C30.0559 30.993 47.75 30.993 47.75 30.993C47.75 30.993 47.5997 39.7758 47.5997 39.7758Z" fill="white" stroke="#333333" stroke-width="1.96875"></path><path fill-rule="evenodd" clip-rule="evenodd" d="M83.2885 39.7758C83.2885 43.5671 79.3276 46.6405 74.4415 46.6405C69.5554 46.6405 65.5944 43.5671 65.5944 39.7758C65.5944 39.7758 65.7447 30.993 65.7447 30.993C65.7447 30.993 83.4388 30.993 83.4388 30.993C83.4388 30.993 83.2885 39.7758 83.2885 39.7758Z" fill="white" stroke="#333333" stroke-width="1.96875"></path><path fill-rule="evenodd" clip-rule="evenodd" d="M29.7553 39.7758C29.7553 43.5671 25.7944 46.6405 20.9083 46.6405C16.0222 46.6405 12.0612 43.5671 12.0612 39.7758C12.0612 39.7758 12.2115 30.993 12.2115 30.993C12.2115 30.993 29.9056 30.993 29.9056 30.993C29.9056 30.993 29.7553 39.7758 29.7553 39.7758Z" stroke="#333333" stroke-width="1.96875"></path><path fill-rule="evenodd" clip-rule="evenodd" d="M65.4441 39.7758C65.4441 43.5671 61.4832 46.6405 56.5971 46.6405C51.711 46.6405 47.75 43.5671 47.75 39.7758C47.75 39.7758 47.9003 30.993 47.9003 30.993C47.9003 30.993 65.5944 30.993 65.5944 30.993C65.5944 30.993 65.4441 39.7758 65.4441 39.7758Z" stroke="#333333" stroke-width="1.96875"></path><path fill-rule="evenodd" clip-rule="evenodd" d="M101.133 39.7758C101.133 43.5671 97.172 46.6405 92.2859 46.6405C87.3998 46.6405 83.4388 43.5671 83.4388 39.7758C83.4388 39.7758 83.5891 30.993 83.5891 30.993C83.5891 30.993 101.283 30.993 101.283 30.993C101.283 30.993 101.133 39.7758 101.133 39.7758Z" stroke="#333333" stroke-width="1.96875"></path><path fill-rule="evenodd" clip-rule="evenodd" d="M11.9801 30.7274C11.9873 30.7181 12.0069 30.6946 12.0378 30.658C12.8704 29.6695 19.6329 19.1013 20.044 18.5971C20.7232 17.7641 21.7565 17.2784 22.8496 17.2784H90.2351C91.3307 17.2784 92.3585 17.8246 92.9932 18.7439C92.9932 18.7439 101.798 30.5403 101.251 30.7072C100.704 30.8742 11.767 30.9888 11.9801 30.7274Z" fill="white" stroke="#333333" stroke-width="1.96875"></path></svg>