<svg class="ui-homes-icon ui-homes-icon--da-payment-methods font-color--HOME-DA-PAYMENT-METHODS" width="100%" height="100%" viewBox="0 0 100 100" fill="none" xmlns="http://www.w3.org/2000/svg"><circle cx="53" cy="53" r="45.5403" fill="#EEEEEE"></circle><rect x="59.9814" y="9.03125" width="38.3958" height="47.0582" rx="3.9375" transform="rotate(64.1595 59.9814 9.03125)" fill="white" stroke="#333333" stroke-width="1.96875"></rect><rect x="70.2457" y="12.2311" width="38.3958" height="47.0582" rx="3.9375" transform="rotate(64.1595 70.2457 12.2311)" fill="white" stroke="#333333" stroke-width="1.96875"></rect><path d="M16.25 88.8575V34.3162H78.458C82.8363 34.3162 86.3857 37.8655 86.3857 42.2438V80.9298C86.3857 85.3082 82.8363 88.8575 78.458 88.8575H16.25Z" fill="#FFE600" stroke="white" stroke-width="3.9375"></path><path d="M78.458 90.8262H16.0806C15.0868 90.8262 14.2812 90.0206 14.2812 89.0269V47.0938M14.2812 41.8438V34.1468C14.2812 33.153 15.0868 32.3474 16.0806 32.3474H78.458C83.9236 32.3474 88.3544 36.7782 88.3544 42.2438V80.9298C88.3544 81.2486 88.3393 81.564 88.3098 81.8751M86.4688 86.7419C85.7546 87.7245 84.8641 88.5706 83.8438 89.2338" stroke="#333333" stroke-width="1.96875"></path><path d="M50.463 54.4634H90.4167V69.8748H50.463C46.2072 69.8748 42.7573 66.4248 42.7573 62.1691C42.7573 57.9134 46.2072 54.4634 50.463 54.4634Z" fill="white" stroke="white" stroke-width="3.9375"></path><path d="M40.7885 62.1691C40.7885 56.8261 45.1199 52.4947 50.463 52.4947H92.3854V71.8435H50.463C45.1199 71.8435 40.7885 67.5121 40.7885 62.1691V62.1691Z" stroke="#333333" stroke-width="1.96875"></path><ellipse cx="51.3181" cy="62.1691" rx="2.48745" ry="2.48738" fill="#333333"></ellipse></svg>