<svg class="ui-homes-icon ui-homes-icon--da-low-price-products font-color--HOME-DA-NEW-LOWPRICEPRODUCTS" width="100%" height="100%" viewBox="0 0 100 100" fill="none" xmlns="http://www.w3.org/2000/svg"><g clip-path="url(#clip0_562_4278)"><circle cx="53" cy="53" r="45.5403" fill="#EEEEEE"></circle><ellipse cx="53.4683" cy="35.4038" rx="25.1025" ry="25.4559" fill="white"></ellipse><path d="M70.2587 35.4044C70.2587 44.8494 62.7155 52.4588 53.4683 52.4588C44.2211 52.4588 36.6779 44.8494 36.6779 35.4044C36.6779 25.9595 44.2211 18.35 53.4683 18.35C62.7155 18.35 70.2587 25.9595 70.2587 35.4044Z" fill="#FFE600" stroke="white" stroke-width="3.9375"></path><path d="M58.2567 30.1622C57.5661 28.5934 56.0087 27.6279 53.282 27.6279C50.426 27.6279 48.3038 29.242 48.3038 31.6079C48.3038 34.5402 50.0348 35.1343 52.6635 35.8341C52.8293 35.8795 52.9948 35.9248 53.1593 35.9705L53.4866 36.0626C55.6023 36.6668 58.2567 37.252 58.4903 39.6052C58.724 41.9585 56.8633 44.055 53.0923 44.0463C50.426 44.0402 48.1735 42.7827 47.7695 40.797" stroke="#333333" stroke-width="1.96875"></path><path d="M53.3628 24.7294V27.6257" stroke="#333333" stroke-width="1.96875"></path><path d="M53.3628 44.2469V47.1432" stroke="#333333" stroke-width="1.96875"></path><ellipse cx="53.4683" cy="35.4033" rx="18.7591" ry="19.0232" stroke="#333333" stroke-width="1.96875"></ellipse><mask id="path-8-inside-1_562_4278" fill="white"><rect x="32.3635" y="85.3815" width="50.205" height="10.0013" rx="1.3125"></rect></mask><rect x="32.3635" y="85.3815" width="50.205" height="10.0013" rx="1.3125" fill="white" stroke="white" stroke-width="5.25" mask="url(#path-8-inside-1_562_4278)"></rect><rect x="32.3635" y="85.3815" width="50.205" height="10.0013" rx="1.3125" stroke="#333333" stroke-width="1.96875"></rect><mask id="path-10-inside-2_562_4278" fill="white"><rect x="24.3681" y="75.3812" width="50.205" height="10.0013" rx="1.3125"></rect></mask><rect x="24.3681" y="75.3812" width="50.205" height="10.0013" rx="1.3125" fill="white" stroke="white" stroke-width="5.25" mask="url(#path-10-inside-2_562_4278)"></rect><rect x="24.3681" y="75.3812" width="50.205" height="10.0013" rx="1.3125" stroke="#333333" stroke-width="1.96875"></rect><mask id="path-12-inside-3_562_4278" fill="white"><rect x="29.6983" y="65.3796" width="50.205" height="10.0013" rx="1.3125"></rect></mask><rect x="29.6983" y="65.3796" width="50.205" height="10.0013" rx="1.3125" fill="white" stroke="white" stroke-width="5.25" mask="url(#path-12-inside-3_562_4278)"></rect><rect x="29.6983" y="65.3796" width="50.205" height="10.0013" rx="1.3125" stroke="#333333" stroke-width="1.96875"></rect><line x1="30.9142" y1="77.7165" x2="30.9142" y2="83.0468" stroke="#333333" stroke-width="1.96875"></line><line x1="38.462" y1="77.7175" x2="38.462" y2="83.0478" stroke="#333333" stroke-width="1.96875"></line><line x1="46.0099" y1="77.7175" x2="46.0099" y2="83.0478" stroke="#333333" stroke-width="1.96875"></line><line x1="53.5578" y1="77.7175" x2="53.5578" y2="83.0478" stroke="#333333" stroke-width="1.96875"></line><line x1="61.1057" y1="77.7175" x2="61.1057" y2="83.0478" stroke="#333333" stroke-width="1.96875"></line><line x1="68.6537" y1="77.7175" x2="68.6537" y2="83.0478" stroke="#333333" stroke-width="1.96875"></line><line x1="38.9095" y1="87.738" x2="38.9095" y2="93.0683" stroke="#333333" stroke-width="1.96875"></line><line x1="46.4574" y1="87.7392" x2="46.4574" y2="93.0695" stroke="#333333" stroke-width="1.96875"></line><line x1="54.0052" y1="87.7392" x2="54.0052" y2="93.0695" stroke="#333333" stroke-width="1.96875"></line><line x1="61.5532" y1="87.7392" x2="61.5532" y2="93.0695" stroke="#333333" stroke-width="1.96875"></line><line x1="69.1011" y1="87.7392" x2="69.1011" y2="93.0695" stroke="#333333" stroke-width="1.96875"></line><line x1="76.649" y1="87.7392" x2="76.649" y2="93.0695" stroke="#333333" stroke-width="1.96875"></line><line x1="36.2444" y1="67.6995" x2="36.2444" y2="73.0297" stroke="#333333" stroke-width="1.96875"></line><line x1="43.7923" y1="67.7006" x2="43.7923" y2="73.0308" stroke="#333333" stroke-width="1.96875"></line><line x1="51.3401" y1="67.7006" x2="51.3401" y2="73.0308" stroke="#333333" stroke-width="1.96875"></line><line x1="58.8881" y1="67.7006" x2="58.8881" y2="73.0308" stroke="#333333" stroke-width="1.96875"></line><line x1="66.436" y1="67.7006" x2="66.436" y2="73.0308" stroke="#333333" stroke-width="1.96875"></line><line x1="73.9839" y1="67.7006" x2="73.9839" y2="73.0308" stroke="#333333" stroke-width="1.96875"></line><path d="M34.9215 18.2493C39.5121 13.1484 46.1216 9.948 53.4682 9.948C67.3319 9.948 78.5707 21.345 78.5707 35.4039C78.5707 40.8575 76.8795 45.9106 74 50.0532M31.6294 22.8431C29.552 26.5493 28.3656 30.8361 28.3656 35.4039C28.3656 49.4628 39.6044 60.8598 53.4682 60.8598C56.692 60.8598 59.7739 60.2435 62.6055 59.1208M67.4375 56.5572C68.5169 55.8227 69.537 55.0055 70.489 54.1145" stroke="#333333" stroke-width="1.96875"></path><circle cx="74" cy="22.8431" r="8.53125" fill="white" stroke="white" stroke-width="3.9375"></circle><circle cx="74" cy="22.8431" r="10.5" stroke="#333333" stroke-width="1.96875"></circle><path d="M73.9997 17.1279V27.6279M73.9997 27.6279L70.0628 23.8098M73.9997 27.6279L77.9378 23.8098" stroke="#333333" stroke-width="1.96875"></path></g><defs><clipPath id="clip0_562_4278"><rect width="105" height="105" fill="white" transform="translate(0.5 0.5)"></rect></clipPath></defs></svg>