<svg class="ui-homes-icon ui-homes-icon--da-help font-color--HOME-DA-HELP" width="113" height="85" viewBox="0 0 113 85" fill="none" xmlns="http://www.w3.org/2000/svg"><path fill-rule="evenodd" clip-rule="evenodd" d="M75.9914 83.8379C86.4969 79.7203 97.9541 72.0826 104.671 62.0209C114.431 47.3993 114.01 36.2072 110.33 24.5941C106.612 12.8554 94.5076 0.360937 77.726 6.2158C60.9445 12.0707 59.1282 20.8045 37.8152 20.8045C16.5022 20.8045 4.10721 29.6819 1.11686 42.1689C-1.87349 54.6558 3.39505 67.3049 10.3979 73.2457C15.8281 77.8523 21.4287 81.5719 28.3954 84.076L75.9914 83.8379Z" fill="black" fill-opacity="0.04"></path><path d="M19.089 27.5697V24.1595C19.089 23.7539 19.418 23.4248 19.8237 23.4248H23.2339" stroke="#333333" stroke-width="1.5"></path><path fill-rule="evenodd" clip-rule="evenodd" d="M73.5026 61.9926V5.74627C73.5026 3.08356 71.3127 0.924011 68.6132 0.924011H32.7269C30.0267 0.924011 27.8368 3.08356 27.8368 5.74627V35.2537V63.5989V78.284C27.8368 81.4306 30.4235 83.9814 33.6145 83.9814H67.7249C70.9159 83.9814 73.5026 81.4306 73.5026 78.284V70.245V61.9926Z" fill="white"></path><path fill-rule="evenodd" clip-rule="evenodd" d="M67.6381 81.1831H33.8751C30.7166 81.1831 28.1562 78.7171 28.1562 75.6751V78.3296C28.1562 81.3716 30.7166 83.8376 33.8751 83.8376H67.6381C70.7966 83.8376 73.357 81.3716 73.357 78.3296V75.6751C73.357 78.7171 70.7966 81.1831 67.6381 81.1831Z" fill="#EEEEEE"></path><rect x="29.37" y="11.5548" width="42.6658" height="60.6184" fill="#FFE600" stroke="white" stroke-width="3"></rect><path d="M27.87 62.9103V35.2536V5.74623C27.87 3.08353 30.0599 0.923981 32.7601 0.923981H68.6464C71.3459 0.923981 73.5358 3.08353 73.5358 5.74623V12.5406M27.87 65.2049V78.2839C27.87 81.4306 30.4567 83.9814 33.6477 83.9814H67.7581C70.9491 83.9814 73.5358 81.4306 73.5358 78.2839V70.245V61.9926V19.1283M73.5358 14.9092V16.7227" stroke="#333333" stroke-width="1.5"></path><path d="M27.8368 73.6728H73.2099" stroke="#333333" stroke-width="1.5"></path><path d="M73.2099 10.0544H27.8368" stroke="#333333" stroke-width="1.5"></path><path d="M45.24 5.93067H55.2337" stroke="#333333" stroke-width="1.5"></path><path d="M47.157 78.3855H53.0116" stroke="#333333" stroke-width="1.5"></path><path d="M80.6703 23.4248H83.5933C83.941 23.4248 84.2231 23.7538 84.2231 24.1594V27.5697" stroke="#333333" stroke-width="1.5"></path><path d="M19.089 59.5492V62.4722C19.089 62.8199 19.418 63.102 19.8237 63.102H23.2339" stroke="#333333" stroke-width="1.5"></path><path d="M84.223 59.5492V62.4722C84.223 62.8199 83.894 63.102 83.4883 63.102H80.0781" stroke="#333333" stroke-width="1.5"></path><path d="M1.71375 83.9814L100.822 83.9814" stroke="#333333" stroke-width="1.5"></path><path fill-rule="evenodd" clip-rule="evenodd" d="M73.7814 60.8964H29.6171C27.1906 60.8964 25.2213 58.9274 25.2213 56.499V29.9774C25.2213 27.5489 27.1906 25.58 29.6171 25.58H73.7814C76.209 25.58 78.1772 27.5489 78.1772 29.9774V56.499C78.1772 58.9274 76.209 60.8964 73.7814 60.8964Z" fill="white"></path><path d="M73.7814 59.3964H29.6171C28.0193 59.3964 26.7213 58.0993 26.7213 56.499V29.9774C26.7213 28.3771 28.0193 27.08 29.6171 27.08H73.7814C75.3801 27.08 76.6772 28.3768 76.6772 29.9774V56.499C76.6772 58.0995 75.3801 59.3964 73.7814 59.3964Z" fill="white" stroke="white" stroke-width="3"></path><path d="M54.7247 52.119H73.4292" stroke="#333333" stroke-width="1.5" stroke-linecap="square"></path><path d="M54.7247 43.2158H73.4292" stroke="#333333" stroke-width="1.5" stroke-linecap="square"></path><path d="M54.7247 34.3126H73.4292" stroke="#333333" stroke-width="1.5" stroke-linecap="square"></path><path d="M47.3916 35.86V50.5723C47.3916 50.8707 47.1506 51.1126 46.8532 51.1126H32.1932C31.8958 51.1126 31.6548 50.8707 31.6548 50.5723V35.86C31.6548 35.5616 31.8958 35.3197 32.1932 35.3197H46.8532C47.1506 35.3197 47.3916 35.5616 47.3916 35.86Z" fill="#5AD2FF"></path><mask id="path-21-inside-1_587_3900" fill="white"><rect x="30.0398" y="33.6985" width="18.967" height="19.0347" rx="2"></rect></mask><rect x="30.0398" y="33.6985" width="18.967" height="19.0347" rx="2" fill="#FFE600" stroke="white" stroke-width="6" mask="url(#path-21-inside-1_587_3900)"></rect><path d="M44.4489 41.6457C44.4489 44.3746 42.2439 46.5889 39.5233 46.5889C36.8027 46.5889 34.5977 44.3746 34.5977 41.6457C34.5977 38.9167 36.8027 36.7025 39.5233 36.7025C42.2439 36.7025 44.4489 38.9167 44.4489 41.6457Z" fill="white" stroke="#333333" stroke-width="1.5"></path><path d="M47.3916 52.7332C47.3916 52.7332 46.5818 46.5887 39.5232 46.5887C32.4646 46.5887 31.6548 52.7332 31.6548 52.7332" fill="white"></path><path d="M47.3916 52.7332C47.3916 52.7332 46.5818 46.5887 39.5232 46.5887C32.4646 46.5887 31.6548 52.7332 31.6548 52.7332" stroke="#333333" stroke-width="1.5"></path><rect x="30.0398" y="33.6985" width="18.967" height="19.0347" rx="2" stroke="#333333" stroke-width="1.5"></rect><path fill-rule="evenodd" clip-rule="evenodd" d="M73.7814 60.8964H29.6171C27.1906 60.8964 25.2213 58.9274 25.2213 56.499V29.9774C25.2213 27.5489 27.1906 25.58 29.6171 25.58H73.7814C76.209 25.58 78.1772 27.5489 78.1772 29.9774V56.499C78.1772 58.9274 76.209 60.8964 73.7814 60.8964Z" stroke="#333333" stroke-width="1.5"></path><path fill-rule="evenodd" clip-rule="evenodd" d="M60.0234 56.5348C59.9482 56.5626 59.8869 56.6112 59.8441 56.6725C59.8012 56.7338 59.7769 56.8079 59.7771 56.8859L59.7771 67.3577C59.7598 71.2123 61.0752 74.8228 63.3397 77.7016C65.6037 80.5798 68.8164 82.7266 72.7743 83.6547C76.5515 82.7266 79.7643 80.5798 82.0283 77.7016C84.2928 74.8228 85.6081 71.2123 85.5908 67.3577V56.8895C85.591 56.8079 85.5667 56.7338 85.5239 56.6725C85.4811 56.6112 85.4197 56.5626 85.3459 56.5353L72.8282 51.8885C72.7346 51.8575 72.6333 51.8575 72.5397 51.8885L60.0234 56.5348Z" fill="white"></path><path d="M61.3313 67.3643H61.3313C61.3156 70.8759 62.5067 74.1647 64.5602 76.7894C66.541 79.3212 69.3242 81.2349 72.7647 82.1265M61.3313 67.3643L60.0765 56.522C60.0017 56.5498 59.9406 56.5985 59.898 56.6598C59.8553 56.7212 59.8311 56.7953 59.8313 56.8735L59.8313 67.3576C59.8141 71.2168 61.1239 74.8315 63.3788 77.7137C65.6332 80.5952 68.8323 82.7446 72.7735 83.6737M61.3313 67.3643V67.3576L61.3313 57.6547L72.6835 53.4177M61.3313 67.3643L72.6835 53.4177M72.7647 82.1265C72.6483 82.1581 72.5313 82.1885 72.4137 82.2175L72.7735 83.6737M72.7647 82.1265C76.0398 81.2358 78.8242 79.3236 80.8068 76.7894C82.8603 74.1647 84.0513 70.8759 84.0357 67.3643L84.0356 67.3576L84.0357 57.6547L72.6835 53.4177M72.7647 82.1265C72.8816 82.1567 72.9993 82.1859 73.1177 82.2138L72.7735 83.6737M72.7735 83.6737C76.5347 82.7446 79.7338 80.5952 81.9882 77.7137C84.2431 74.8315 85.5529 71.2168 85.5357 67.3576V56.877C85.5359 56.7953 85.5117 56.7212 85.469 56.6598L72.6835 53.4177M84.0357 56.8726V56.877V56.8726Z" fill="#FFE600" stroke="white" stroke-width="3"></path><path fill-rule="evenodd" clip-rule="evenodd" d="M60.0305 56.522C59.9557 56.5498 59.8946 56.5985 59.852 56.6598C59.8093 56.7212 59.7851 56.7953 59.7853 56.8735L59.7853 67.3576C59.7681 71.2168 61.0778 74.8315 63.3328 77.7137C65.5872 80.5952 68.7863 82.7446 72.7275 83.6738C76.4887 82.7446 79.6878 80.5952 81.9422 77.7137C84.1971 74.8315 85.5069 71.2168 85.4896 67.3576V56.877C85.4899 56.7953 85.4657 56.7212 85.423 56.6598C85.3804 56.5985 85.3193 56.5498 85.2458 56.5225L72.7811 51.8702C72.6879 51.8392 72.5871 51.8392 72.4938 51.8702L60.0305 56.522Z" stroke="#333333" stroke-width="1.5"></path><circle cx="72.6631" cy="64.7982" r="5.98383" fill="white" stroke="#333333" stroke-width="1.5"></circle></svg>